<?xml version="1.0" encoding="utf-8"?>
<!-- Generator: Adobe Illustrator 19.1.0, SVG Export Plug-In . SVG Version: 6.00 Build 0)  -->
<svg version="1.1" id="Layer_1" xmlns="http://www.w3.org/2000/svg" xmlns:xlink="http://www.w3.org/1999/xlink" x="0px" y="0px"
	 viewBox="0 0 233.8 31.7" style="enable-background:new 0 0 233.8 31.7;" xml:space="preserve">
<style type="text/css">
	.st0{display:none;fill:#00074B;}
	.st1{fill:#FFFFFF;}
	.st2{fill:#ED131B;}
</style>
<rect x="-282.4" y="-193.3" class="st0" width="833.5" height="436.3"/>
<g>
	<path class="st1" d="M4.1,24.6c-1.4-0.6-2.5-1.2-3.1-2S0,21,0,20.3c0-0.2,0.1-0.4,0.2-0.6s0.4-0.3,0.6-0.3H7h0.1
		c0.2,0,0.5,0.1,0.7,0.2c0.2,0.1,0.4,0.2,0.4,0.3c0.3,0.2,0.5,0.3,0.7,0.4c0.2,0.1,0.4,0.1,0.7,0.1c0.2,0,0.4,0,0.6-0.1
		c0.2-0.1,0.2-0.2,0.2-0.4c0-0.2-0.1-0.4-0.2-0.6s-0.5-0.3-1-0.5s-1.3-0.4-2.5-0.6c-1.9-0.4-3.4-1-4.6-1.9c-1.2-0.9-1.8-2.3-1.8-4
		c0-1,0.3-2,1-2.9s1.7-1.7,3.1-2.2c1.4-0.6,3-0.8,4.8-0.8c1.8,0,3.5,0.3,4.9,0.8c1.4,0.6,2.5,1.2,3.2,2c0.8,0.8,1.1,1.6,1.1,2.3
		c0,0.2-0.1,0.4-0.2,0.6s-0.3,0.3-0.5,0.3h-5.6h-0.4c-0.2,0-0.4-0.1-0.7-0.2c-0.2-0.1-0.4-0.2-0.6-0.4c-0.5-0.4-0.9-0.5-1.3-0.5
		c-0.2,0-0.4,0.1-0.5,0.2s-0.2,0.2-0.2,0.4c0,0.2,0.1,0.4,0.2,0.6c0.2,0.2,0.5,0.3,1.1,0.5c0.6,0.2,1.4,0.3,2.6,0.5
		c2.4,0.4,4.1,1.1,5.2,2.2c1.1,1.1,1.7,2.4,1.7,3.7c0,1.9-0.9,3.4-2.6,4.5c-1.7,1.1-4.1,1.6-7.3,1.6C7.3,25.4,5.5,25.1,4.1,24.6z"/>
	<path class="st1" d="M26,24.5c-1.5-0.6-2.6-1.5-3.5-2.8c-0.9-1.2-1.4-2.7-1.4-4.4l0-1.4l0-1.4c0.1-1.7,0.5-3.1,1.4-4.4
		c0.9-1.2,2.1-2.2,3.5-2.8c1.5-0.6,3.1-1,4.9-1c2.3,0,4.2,0.4,5.8,1.3c1.6,0.8,2.7,1.8,3.4,2.9c0.7,1.1,1.1,2,1.1,2.8
		c0,0.2-0.1,0.4-0.3,0.6s-0.4,0.3-0.7,0.3h-6.9c-0.4,0-0.8-0.2-1-0.7c-0.2-0.4-0.4-0.6-0.5-0.8c-0.2-0.2-0.4-0.2-0.8-0.2
		c-0.5,0-0.9,0.2-1.1,0.6c-0.2,0.4-0.3,0.9-0.3,1.7l0,1.4l0,1.1c0,0.8,0.2,1.4,0.4,1.7c0.2,0.3,0.5,0.5,1.1,0.5
		c0.4,0,0.6-0.1,0.8-0.2c0.2-0.2,0.3-0.4,0.5-0.8c0.2-0.5,0.5-0.7,1-0.7h6.9c0.3,0,0.5,0.1,0.7,0.3s0.3,0.4,0.3,0.6
		c0,0.7-0.4,1.5-1.1,2.6c-0.7,1.1-1.8,2.1-3.4,3c-1.5,0.9-3.5,1.3-5.9,1.3C29.1,25.4,27.5,25.1,26,24.5z"/>
	<path class="st1" d="M66.5,24.8c-0.2-0.2-0.3-0.4-0.3-0.7V7.7c0-0.3,0.1-0.5,0.3-0.7c0.2-0.2,0.4-0.3,0.7-0.3h6.2
		c0.3,0,0.5,0.1,0.7,0.3c0.2,0.2,0.3,0.4,0.3,0.7v1.2c0.8-0.7,1.6-1.2,2.6-1.6c0.9-0.4,1.9-0.6,2.9-0.6h1.7c0.3,0,0.5,0.1,0.7,0.3
		c0.2,0.2,0.3,0.4,0.3,0.7v5.5c0,0.3-0.1,0.5-0.3,0.7c-0.2,0.2-0.4,0.3-0.7,0.3h-4.5c-1.4,0-2.1,0.7-2.1,2.1v7.9
		c0,0.3-0.1,0.5-0.3,0.7c-0.2,0.2-0.4,0.3-0.7,0.3h-6.7C66.9,25,66.7,24.9,66.5,24.8z"/>
	<path class="st1" d="M86.5,23c-1.8-1.6-2.6-3.9-2.6-7.1v-0.2c0-3,1-5.3,2.8-6.9s4.2-2.4,7.3-2.4c2.2,0,4.1,0.4,5.6,1.3
		c1.5,0.9,2.6,2,3.4,3.5c0.7,1.4,1.1,3.1,1.1,4.8V17c0,0.3-0.1,0.5-0.3,0.7c-0.2,0.2-0.4,0.3-0.7,0.3H92.5v0.2
		c0,0.7,0.1,1.3,0.3,1.6c0.2,0.4,0.6,0.5,1.1,0.5c0.2,0,0.3,0,0.5-0.1c0.1-0.1,0.3-0.3,0.6-0.5c0.2-0.2,0.4-0.3,0.5-0.4
		c0.1-0.1,0.4-0.1,0.6-0.1h6.7c0.2,0,0.4,0.1,0.5,0.2c0.2,0.1,0.2,0.3,0.2,0.5c0,0.7-0.4,1.4-1.1,2.3c-0.7,0.9-1.8,1.6-3.3,2.3
		s-3.2,1-5.2,1C90.7,25.4,88.3,24.6,86.5,23z M95.3,13.5L95.3,13.5c0-1.5-0.5-2.3-1.4-2.3c-0.9,0-1.4,0.7-1.4,2.2v0H95.3z"/>
	<path class="st1" d="M106.7,24.8c-0.2-0.2-0.3-0.4-0.3-0.7V1c0-0.3,0.1-0.5,0.3-0.7c0.2-0.2,0.4-0.3,0.7-0.3h6.2
		c0.3,0,0.5,0.1,0.7,0.3c0.2,0.2,0.3,0.4,0.3,0.7v11.4l3.1-5.1c0.2-0.4,0.6-0.6,1-0.6h7.1c0.2,0,0.4,0.1,0.6,0.2
		c0.2,0.2,0.2,0.4,0.2,0.6c0,0.2-0.1,0.3-0.2,0.5l-4.8,6.9l5.7,8.8c0.1,0.1,0.1,0.3,0.1,0.5c0,0.2-0.1,0.4-0.2,0.6
		c-0.2,0.2-0.4,0.2-0.6,0.2h-7.4c-0.5,0-0.8-0.2-1.1-0.6l-3.6-6v5.6c0,0.3-0.1,0.5-0.3,0.7c-0.2,0.2-0.4,0.3-0.7,0.3h-6.2
		C107.1,25,106.9,24.9,106.7,24.8z"/>
	<path class="st1" d="M130.4,23c-1.8-1.6-2.6-3.9-2.6-7.1v-0.2c0-3,1-5.3,2.8-6.9c1.8-1.6,4.2-2.4,7.3-2.4c2.2,0,4.1,0.4,5.6,1.3
		c1.5,0.9,2.6,2,3.4,3.5c0.7,1.4,1.1,3.1,1.1,4.8V17c0,0.3-0.1,0.5-0.3,0.7s-0.4,0.3-0.7,0.3h-10.5v0.2c0,0.7,0.1,1.3,0.3,1.6
		c0.2,0.4,0.6,0.5,1.1,0.5c0.2,0,0.3,0,0.5-0.1c0.1-0.1,0.3-0.3,0.6-0.5c0.2-0.2,0.4-0.3,0.5-0.4c0.1-0.1,0.4-0.1,0.6-0.1h6.7
		c0.2,0,0.4,0.1,0.5,0.2c0.2,0.1,0.2,0.3,0.2,0.5c0,0.7-0.4,1.4-1.1,2.3c-0.7,0.9-1.8,1.6-3.3,2.3c-1.4,0.6-3.2,1-5.2,1
		C134.6,25.4,132.1,24.6,130.4,23z M139.2,13.5L139.2,13.5c0-1.5-0.5-2.3-1.4-2.3s-1.4,0.7-1.4,2.2v0H139.2z"/>
	<path class="st1" d="M152.3,23c-1.8-1.6-2.6-3.9-2.6-7.1v-0.2c0-3,1-5.3,2.8-6.9c1.8-1.6,4.2-2.4,7.3-2.4c2.2,0,4.1,0.4,5.6,1.3
		c1.5,0.9,2.6,2,3.4,3.5c0.7,1.4,1.1,3.1,1.1,4.8V17c0,0.3-0.1,0.5-0.3,0.7s-0.4,0.3-0.7,0.3h-10.5v0.2c0,0.7,0.1,1.3,0.3,1.6
		c0.2,0.4,0.6,0.5,1.1,0.5c0.2,0,0.3,0,0.5-0.1c0.1-0.1,0.3-0.3,0.6-0.5c0.2-0.2,0.4-0.3,0.5-0.4c0.1-0.1,0.4-0.1,0.6-0.1h6.7
		c0.2,0,0.4,0.1,0.5,0.2c0.2,0.1,0.2,0.3,0.2,0.5c0,0.7-0.4,1.4-1.1,2.3c-0.7,0.9-1.8,1.6-3.3,2.3c-1.4,0.6-3.2,1-5.2,1
		C156.6,25.4,154.1,24.6,152.3,23z M161.1,13.5L161.1,13.5c0-1.5-0.5-2.3-1.4-2.3s-1.4,0.7-1.4,2.2v0H161.1z"/>
	<path class="st1" d="M172.5,31.5c-0.2-0.2-0.3-0.4-0.3-0.7V7.7c0-0.3,0.1-0.5,0.3-0.7c0.2-0.2,0.4-0.3,0.7-0.3h6
		c0.3,0,0.5,0.1,0.7,0.3c0.2,0.2,0.3,0.4,0.3,0.7v1.1c0.6-0.7,1.3-1.3,2.2-1.7c0.9-0.4,1.9-0.6,3-0.6c2.2,0,4,0.7,5.3,2
		c1.3,1.3,2.1,3.4,2.2,6.2c0,0.4,0,0.8,0,1.4c0,0.6,0,1.1,0,1.4c-0.1,2.7-0.8,4.7-2.2,6c-1.4,1.4-3.1,2.1-5.3,2.1
		c-2.1,0-3.7-0.7-4.7-2.1v7.5c0,0.3-0.1,0.5-0.3,0.7c-0.2,0.2-0.4,0.3-0.7,0.3h-6.5C172.9,31.7,172.7,31.6,172.5,31.5z M183.7,18.6
		c0.2-0.3,0.4-0.8,0.5-1.6c0-0.5,0.1-0.9,0.1-1.2c0-0.3,0-0.7-0.1-1.2c-0.1-0.7-0.2-1.2-0.5-1.6c-0.2-0.3-0.7-0.5-1.3-0.5
		s-1,0.2-1.3,0.5s-0.4,0.9-0.5,1.5c0,0.4,0,0.8,0,1.3c0,0.5,0,1,0,1.3c0,0.6,0.2,1,0.5,1.3s0.7,0.4,1.3,0.4
		C183.1,19.1,183.5,18.9,183.7,18.6z"/>
	<path class="st1" d="M197.6,23c-1.8-1.6-2.6-3.9-2.6-7.1v-0.2c0-3,1-5.3,2.8-6.9c1.8-1.6,4.2-2.4,7.3-2.4c2.2,0,4.1,0.4,5.6,1.3
		c1.5,0.9,2.6,2,3.4,3.5c0.7,1.4,1.1,3.1,1.1,4.8V17c0,0.3-0.1,0.5-0.3,0.7s-0.4,0.3-0.7,0.3h-10.5v0.2c0,0.7,0.1,1.3,0.3,1.6
		c0.2,0.4,0.6,0.5,1.1,0.5c0.2,0,0.3,0,0.5-0.1c0.1-0.1,0.3-0.3,0.6-0.5c0.2-0.2,0.4-0.3,0.5-0.4c0.1-0.1,0.4-0.1,0.6-0.1h6.7
		c0.2,0,0.4,0.1,0.5,0.2c0.2,0.1,0.2,0.3,0.2,0.5c0,0.7-0.4,1.4-1.1,2.3c-0.7,0.9-1.8,1.6-3.3,2.3c-1.4,0.6-3.2,1-5.2,1
		C201.9,25.4,199.4,24.6,197.6,23z M206.4,13.5L206.4,13.5c0-1.5-0.5-2.3-1.4-2.3s-1.4,0.7-1.4,2.2v0H206.4z"/>
	<path class="st1" d="M217.8,24.8c-0.2-0.2-0.3-0.4-0.3-0.7V7.7c0-0.3,0.1-0.5,0.3-0.7c0.2-0.2,0.4-0.3,0.7-0.3h6.2
		c0.3,0,0.5,0.1,0.7,0.3c0.2,0.2,0.3,0.4,0.3,0.7v1.2c0.8-0.7,1.6-1.2,2.6-1.6c0.9-0.4,1.9-0.6,2.9-0.6h1.7c0.3,0,0.5,0.1,0.7,0.3
		c0.2,0.2,0.3,0.4,0.3,0.7v5.5c0,0.3-0.1,0.5-0.3,0.7c-0.2,0.2-0.4,0.3-0.7,0.3h-4.5c-1.4,0-2.1,0.7-2.1,2.1v7.9
		c0,0.3-0.1,0.5-0.3,0.7c-0.2,0.2-0.4,0.3-0.7,0.3h-6.7C218.2,25,218,24.9,217.8,24.8z"/>
	<path class="st2" d="M63.5,14.2c-0.2-2.6-1.1-4.5-2.9-5.9c-1.8-1.3-4.2-2-7.3-2c-3.1,0-5.5,0.7-7.3,2c-1.8,1.3-2.8,3.3-2.9,5.9
		c0,0.4,0,0.9,0,1.7c0,0.8,0,1.3,0,1.7c0.4,5.2,3.8,7.9,10.2,7.9c6.5,0,9.9-2.6,10.2-7.9c0-0.7,0.1-1.3,0.1-1.7
		C63.6,15.5,63.6,14.9,63.5,14.2z M60.9,17.1C60.6,21,58.1,23,53.3,23c-4.8,0-7.4-2-7.6-5.9c0-0.3,0-0.7,0-1.2c0-0.6,0-1,0-1.2
		c0.1-1.9,0.8-3.4,2.2-4.4c1.3-1,3.1-1.5,5.4-1.5c2.3,0,4.1,0.5,5.4,1.5c1.3,1,2.1,2.5,2.2,4.4c0,0.5,0.1,0.9,0.1,1.2
		C61,16.2,60.9,16.6,60.9,17.1z"/>
	<path class="st2" d="M48.9,16.6c0-0.2,0-0.4,0-0.7c0-0.3,0-0.6,0-0.7c0.1-1.1,0.5-1.9,1.3-2.5c0.8-0.6,1.8-0.9,3.1-0.9
		c1.3,0,2.4,0.3,3.1,0.9c0.8,0.6,1.2,1.4,1.3,2.5c0,0.3,0,0.5,0,0.7c0,0.2,0,0.4,0,0.7c-0.2,2.3-1.6,3.4-4.4,3.4
		C50.5,20,49,18.8,48.9,16.6z"/>
</g>
</svg>
